<svg xmlns="http://www.w3.org/2000/svg" version="1.1" xmlns:xlink="http://www.w3.org/1999/xlink" width="1024" height="1024" viewBox="0 0 270.93333 270.93333" id="svg1" xml:space="preserve" inkscape:version="1.4.4 (dcaf3e7, 2026-05-05)" sodipodi:docname="TunePracticeLogo.svg" inkscape:export-filename="../AppIcon.appiconset/TunePracticeLogo.png" inkscape:export-xdpi="96" inkscape:export-ydpi="96" xmlns:inkscape="http://www.inkscape.org/namespaces/inkscape" xmlns:sodipodi="http://sodipodi.sourceforge.net/DTD/sodipodi-0.dtd" xmlns:svg="http://www.w3.org/2000/svg"><metadata><rdf:RDF xmlns:rdf="http://www.w3.org/1999/02/22-rdf-syntax-ns#" xmlns:dc="http://purl.org/dc/elements/1.1/"><rdf:Description><dc:creator>RealFaviconGenerator</dc:creator><dc:source>https://realfavicongenerator.net</dc:source></rdf:Description></rdf:RDF></metadata><sodipodi:namedview id="namedview1" pagecolor="#ffffff" bordercolor="#666666" borderopacity="1.0" inkscape:showpageshadow="2" inkscape:pageopacity="0.0" inkscape:pagecheckerboard="0" inkscape:deskcolor="#d1d1d1" inkscape:document-units="px" showgrid="true" inkscape:zoom="0.45800788" inkscape:cx="511.99992" inkscape:cy="511.99992" inkscape:window-width="1773" inkscape:window-height="900" inkscape:window-x="0" inkscape:window-y="30" inkscape:window-maximized="0" inkscape:current-layer="layer1"><inkscape:grid id="grid1" units="px" originx="0" originy="0" spacingx="0.26458333" spacingy="0.26458333" empcolor="#0099e5" empopacity="0.30196078" color="#0099e5" opacity="0.14901961" empspacing="32" enabled="true" visible="true"></inkscape:grid></sodipodi:namedview><defs id="defs1"><linearGradient id="linearGradient4"><stop style="stop-color:#ffffff;stop-opacity:1;" offset="0" id="stop6"></stop><stop style="stop-color:#ffffff;stop-opacity:0;" offset="1" id="stop7"></stop></linearGradient><linearGradient id="linearGradient4-1"><stop style="stop-color:#29a732;stop-opacity:1;" offset="0" id="stop4"></stop><stop style="stop-color:#6987c1;stop-opacity:1;" offset="1" id="stop5"></stop></linearGradient><symbol id="sjjb-shopping.svg:symbol157" viewBox="0 0 576.44501 577.45154"><title id="title154">Music</title><path d="M 64.571,0.06355556 C 23.236,0.06355556 0,21.434556 0,65.099556 V 515.22256 c 0,40.844 20.895,62.229 62.192,62.229 h 452.024 c 41.307,0 62.229,-20.315 62.229,-62.229 V 65.099556 c 0,-42.601 -20.922,-65.03600044 -63.521,-65.03600044 -0.004,0 -448.495,-0.143 -448.353,0 z" id="path155"></path><path opacity="0.3" fill="#ffffff" d="m 37.354594,150.15298 v 10 H 545.12608 v -10 z m 0,60 v 10 H 545.12608 v -10 z m 0,60 v 10 H 545.12608 v -10 z m 0,60 v 10 H 545.12608 v -10 z m 0,60 v 10 H 545.12608 v -10 z m 0,60 v 10 H 545.12608 v -10 z m 0,60 v 10 H 545.12608 v -10 z" id="path156"></path><path fill="#ffffff" d="m 430.72569,39.268212 c -2.49386,0.03902 -4.91669,0.438478 -7.21485,1.173828 a 24.774244,24.774244 0 0 0 -4.27734,1.316407 L 207.33116,125.75259 a 24.774244,24.774244 0 0 0 -11.67578,9.27735 c -4.11773,4.63215 -6.30673,10.49563 -6.22852,16.74023 l -0.002,-0.15625 v 215.16602 c -10.45687,-5.31124 -22.23405,-8.39844 -34.71875,-8.39844 -42.3767,0 -77.025394,34.60069 -77.025394,76.98633 0,42.38563 34.639744,77.02343 77.025394,77.02343 37.48833,0 76.65603,-24.83003 83.43359,-69.91992 0.0134,-0.0607 0.0622,-0.2047 0.0742,-0.25976 0.14126,-0.64545 0.17606,-0.93995 0.21484,-1.22657 0.0776,-0.57323 0.114,-0.98326 0.1543,-1.45703 0.0806,-0.94753 0.14937,-2.03727 0.21094,-3.28906 0.12313,-2.50359 0.21334,-5.55996 0.17383,-8.4707 V 166.5065 l 167.37304,-66.34375 v 179.19336 c -10.45656,-5.31085 -22.23453,-8.39649 -34.71875,-8.39649 -42.37668,0 -77.02344,34.60068 -77.02344,76.98633 0,42.38564 34.6378,77.02344 77.02344,77.02344 37.48342,0 76.64647,-24.82369 83.43164,-69.90235 0.0144,-0.0652 0.0653,-0.21861 0.0781,-0.27734 0.14125,-0.64544 0.1741,-0.93995 0.21289,-1.22656 0.0776,-0.57324 0.114,-0.98327 0.15429,-1.45703 0.0806,-0.94754 0.14937,-2.03727 0.21094,-3.28907 0.12314,-2.50358 0.21335,-5.55997 0.17383,-8.4707 l 0.002,0.16797 V 64.19204 l -0.002,0.15625 c 0.0849,-6.766277 -2.48937,-13.078338 -7.28125,-17.855468 -4.79196,-4.777236 -11.10939,-7.330177 -17.875,-7.22461 a 12.387122,12.387122 0 0 0 -0.002,0 z" id="path157"></path></symbol><radialGradient inkscape:collect="always" xlink:href="#linearGradient4-1" id="radialGradient5" cx="0" cy="0" fx="0" fy="0" r="135.46664" gradientUnits="userSpaceOnUse" gradientTransform="matrix(2.2500003,2.2500003,-2.2638465,2.2638465,0,0)"></radialGradient></defs><g inkscape:groupmode="layer" id="layer2" inkscape:label="BG" style="display:inline" sodipodi:insensitive="true"><rect style="display:inline;fill:url(#radialGradient5);stroke-width:10.5833;stroke-linecap:round;stroke-linejoin:round;stroke-dasharray:none" id="rect4" width="270.93329" height="270.93329" x="0" y="0"></rect></g><g inkscape:label="Layer 1" inkscape:groupmode="layer" id="layer1" style="display:inline"><path style="fill:#ffffff;fill-opacity:1;stroke:#000000;stroke-width:0;stroke-linecap:butt;stroke-linejoin:miter;stroke-dasharray:none;stroke-opacity:1" d="M 76.796717,174.52746 69.506904,71.016227 222.41283,46.956551 c 3.11959,12.162503 -1.50797,16.56458 -9.38227,16.363979 L 91.341432,90.679926 102.41171,201.89385 c -5.329805,51.07441 -68.255149,30.87263 -62.782892,-4.04969 4.153736,-26.50789 39.028468,-26.36722 37.167899,-23.3167 z" id="path1" sodipodi:nodetypes="ccccccsc" inkscape:label="Music Note"></path><g id="g6" transform="matrix(0.62271471,-0.18545116,0.17807986,0.72933392,16.2429,53.156737)" inkscape:label="Checked Line"><g id="g9" transform="matrix(1.3342734,0,0,1.2326653,-71.943997,-53.55241)"><path style="display:inline;fill:#515151;fill-opacity:1;stroke:#ffffff;stroke-width:13.2292;stroke-linecap:round;stroke-linejoin:miter;stroke-dasharray:none;stroke-opacity:1" d="m 185.78881,143.48245 81.12315,4.60071" id="path8" sodipodi:nodetypes="cc"></path></g><path style="fill:#ffffff;fill-opacity:1;stroke-width:0;stroke-linejoin:round;stroke-dasharray:none" d="m 146.733,95.601854 c 2.36528,1.174315 1.98507,6.113886 0.81054,8.479056 0,0 -7.83233,25.63953 -10.80427,28.71954 -2.19085,2.45184 -7.97083,2.35553 -10.08634,1.44467 -1.78317,-1.02667 -11.46818,-6.17647 -13.73766,-7.95963 -2.35423,-1.61989 -3.7093,-5.56133 -2.41432,-7.86191 1.29579,-2.30049 3.77877,-1.87233 6.72785,-1.17123 l 11.57756,3.38675 12.24221,-19.77603 c 2.1139,-3.316455 4.25894,-5.820252 5.68443,-5.261216 z" id="path5" sodipodi:nodetypes="cccccccccc"></path></g><g id="use6" transform="matrix(0.62271471,-0.18545116,0.17807986,0.72933392,22.092437,89.26124)" inkscape:label="Checked Line"><g id="g11" transform="matrix(1.3342734,0,0,1.2326653,-71.943997,-53.55241)"><path style="display:inline;fill:#515151;fill-opacity:1;stroke:#ffffff;stroke-width:13.2292;stroke-linecap:round;stroke-linejoin:miter;stroke-dasharray:none;stroke-opacity:1" d="m 183.84438,142.94727 83.06758,5.13589" id="path11" sodipodi:nodetypes="cc"></path></g><path style="fill:#ffffff;fill-opacity:1;stroke-width:0;stroke-linejoin:round;stroke-dasharray:none" d="m 146.733,95.601854 c 2.36528,1.174315 1.98507,6.113886 0.81054,8.479056 0,0 -7.83233,25.63953 -10.80427,28.71954 -2.19085,2.45184 -7.97083,2.35553 -10.08634,1.44467 -1.78317,-1.02667 -11.46818,-6.17647 -13.73766,-7.95963 -2.35423,-1.61989 -3.7093,-5.56133 -2.41432,-7.86191 1.29579,-2.30049 3.77877,-1.87233 6.72785,-1.17123 l 11.57756,3.38675 12.24221,-19.77603 c 2.1139,-3.316455 4.25894,-5.820252 5.68443,-5.261216 z" id="path12" sodipodi:nodetypes="cccccccccc"></path></g><g id="use7" transform="matrix(0.62271471,-0.18545116,0.17807986,0.72933392,26.455471,128.16632)" inkscape:label="Checked Line"><g id="g10" transform="matrix(1.3342734,0,0,1.2326653,-71.943997,-53.55241)"><path style="display:inline;fill:#515151;fill-opacity:1;stroke:#ffffff;stroke-width:13.2292;stroke-linecap:round;stroke-linejoin:miter;stroke-dasharray:none;stroke-opacity:1" d="m 183.84438,142.94727 83.06758,5.13589" id="path9" sodipodi:nodetypes="cc"></path></g><path style="fill:#ffffff;fill-opacity:1;stroke-width:0;stroke-linejoin:round;stroke-dasharray:none" d="m 146.733,95.601854 c 2.36528,1.174315 1.98507,6.113886 0.81054,8.479056 0,0 -7.83233,25.63953 -10.80427,28.71954 -2.19085,2.45184 -7.97083,2.35553 -10.08634,1.44467 -1.78317,-1.02667 -11.46818,-6.17647 -13.73766,-7.95963 -2.35423,-1.61989 -3.7093,-5.56133 -2.41432,-7.86191 1.29579,-2.30049 3.77877,-1.87233 6.72785,-1.17123 l 11.57756,3.38675 12.24221,-19.77603 c 2.1139,-3.316455 4.25894,-5.820252 5.68443,-5.261216 z" id="path10" sodipodi:nodetypes="cccccccccc"></path></g></g></svg>